<svg width="34" height="35" viewBox="0 0 34 35" fill="none" xmlns="http://www.w3.org/2000/svg">
<rect width="34" height="35" fill="#F5F5F5"/>
<g id="Comment Function Back End">
<path d="M-4303 -1786C-4303 -1787.1 -4302.1 -1788 -4301 -1788H2095C2096.1 -1788 2097 -1787.1 2097 -1786V524C2097 525.105 2096.1 526 2095 526H-4301C-4302.1 526 -4303 525.105 -4303 524V-1786Z" fill="#121212"/>
<g id="Upload video -  Upload completed - video private">
<rect width="1440" height="1778" transform="translate(-1106 -1445)" fill="#FAFAFA"/>
<g id="Frame 316">
<g id="Frame 812156">
<g id="Frame 812148">
<g id="Frame 812145">
<g id="Frame 812149">
<g id="Frame 812148_2">
<rect x="-761" y="-7.55859" width="811" height="49.9411" rx="8" fill="white"/>
<g id="vuesax/linear/direct-right">
<g id="vuesax/linear/direct-right_2">
<g id="direct-right">
<path id="Vector" d="M20.1831 10.2559L7.67437 14.1379C4.70453 15.0571 4.6621 19.2432 7.61074 20.2261L11.0473 21.3716C12.0019 21.6898 12.7514 22.4393 13.0696 23.3939L14.2151 26.8305C15.198 29.7791 19.377 29.7296 20.3033 26.7668L24.1853 14.2581C24.949 11.7974 22.6438 9.49219 20.1831 10.2559Z" stroke="#646464" stroke-width="1.5" stroke-linecap="round" stroke-linejoin="round"/>
</g>
</g>
</g>
</g>
</g>
</g>
</g>
</g>
</g>
</g>
<path d="M-4301 -1787H2095V-1789H-4301V-1787ZM2096 -1786V524H2098V-1786H2096ZM2095 525H-4301V527H2095V525ZM-4302 524V-1786H-4304V524H-4302ZM-4301 525C-4301.55 525 -4302 524.552 -4302 524H-4304C-4304 525.657 -4302.66 527 -4301 527V525ZM2096 524C2096 524.552 2095.55 525 2095 525V527C2096.66 527 2098 525.657 2098 524H2096ZM2095 -1787C2095.55 -1787 2096 -1786.55 2096 -1786H2098C2098 -1787.66 2096.66 -1789 2095 -1789V-1787ZM-4301 -1789C-4302.66 -1789 -4304 -1787.66 -4304 -1786H-4302C-4302 -1786.55 -4301.55 -1787 -4301 -1787V-1789Z" fill="black" fill-opacity="0.1"/>
</g>
</svg>
