<svg width="16" height="16" viewBox="0 0 16 16" fill="none" xmlns="http://www.w3.org/2000/svg">
<path d="M7.9999 1.59961C11.246 1.59961 13.9306 4.02807 14.3395 7.16732C14.351 7.2379 14.3483 7.31009 14.3314 7.37958C14.3145 7.44908 14.2837 7.51447 14.2411 7.57185C14.1984 7.62924 14.1446 7.67745 14.0829 7.71362C14.0212 7.74979 13.9528 7.77319 13.8819 7.78241C13.811 7.79164 13.7389 7.7865 13.67 7.76731C13.6011 7.74813 13.5368 7.71528 13.4808 7.67072C13.4249 7.62616 13.3785 7.57081 13.3443 7.50795C13.3102 7.44509 13.2891 7.37601 13.2822 7.30482C12.9412 4.68727 10.7154 2.66628 7.9999 2.66628C6.52424 2.66628 5.1996 3.26817 4.23532 4.23503L5.33323 5.33294L2.13323 5.86628L2.66657 2.66628L3.48219 3.4819C4.63953 2.32363 6.23495 1.59961 7.9999 1.59961ZM2.18011 8.22253C2.31224 8.22063 2.44037 8.26784 2.53967 8.35502C2.63898 8.4422 2.70238 8.56314 2.71761 8.6944C3.05857 11.3119 5.28445 13.3329 7.9999 13.3329C9.61169 13.3329 11.0406 12.6131 12.0187 11.485L11.1999 10.6663L14.3999 10.1329L13.8666 13.3329L12.7739 12.2402C11.6024 13.5584 9.90067 14.3996 7.9999 14.3996C4.75376 14.3996 2.06923 11.9712 1.66032 8.8319C1.64951 8.75689 1.65482 8.68044 1.67588 8.60764C1.69693 8.53484 1.73326 8.46736 1.78245 8.4097C1.83163 8.35204 1.89253 8.30552 1.9611 8.27325C2.02967 8.24098 2.10433 8.22368 2.18011 8.22253Z" fill="white"/>
</svg>
